<svg xmlns="http://www.w3.org/2000/svg" width="1280" height="450" viewBox="0 0 1280 450"><rect width="100%" height="100%" fill="#FFA500"/><path fill="#000000" d="M330.925 267.02v-44.85q-4.1-4.97-8.92-7.02-4.83-2.05-10.39-2.05-5.46 0-9.84 2.05-4.39 2.05-7.51 6.19-3.12 4.15-4.78 10.53-1.66 6.39-1.66 15.06 0 8.78 1.42 14.87 1.41 6.1 4.04 9.95 2.64 3.85 6.44 5.56 3.8 1.7 8.48 1.7 7.51 0 12.77-3.12 5.27-3.12 9.95-8.87m0-115.24h24.08v144.88h-14.72q-4.78 0-6.05-4.39l-2.04-9.65q-6.05 6.92-13.9 11.21t-18.28 4.29q-8.19 0-15.01-3.41-6.83-3.41-11.75-9.9-4.93-6.48-7.61-16.04-2.68-9.55-2.68-21.84 0-11.11 3.02-20.66 3.03-9.56 8.68-16.58 5.66-7.02 13.55-10.97 7.9-3.95 17.75-3.95 8.38 0 14.33 2.63 5.95 2.64 10.63 7.12zm92.14 43.29q11.11 0 20.23 3.6 9.11 3.61 15.6 10.24 6.48 6.63 9.99 16.19 3.51 9.55 3.51 21.35 0 11.89-3.51 21.45-3.51 9.55-9.99 16.28-6.49 6.73-15.6 10.33-9.12 3.61-20.23 3.61-11.22 0-20.38-3.61-9.17-3.6-15.65-10.33t-10.04-16.28q-3.56-9.56-3.56-21.45 0-11.8 3.56-21.35 3.56-9.56 10.04-16.19t15.65-10.24q9.16-3.6 20.38-3.6m0 84.53q12.48 0 18.47-8.39 6-8.38 6-24.57 0-16.18-6-24.67-5.99-8.48-18.47-8.48-12.68 0-18.77 8.53-6.1 8.53-6.1 24.62t6.1 24.52q6.09 8.44 18.77 8.44m88.62-78.59 1.66 7.9q3.02-3.02 6.39-5.61 3.36-2.58 7.12-4.38 3.75-1.81 8.04-2.83t9.36-1.02q8.19 0 14.53 2.77 6.33 2.78 10.58 7.8 4.24 5.02 6.43 12 2.19 6.97 2.19 15.35v63.67h-24.08v-63.67q0-9.16-4.19-14.18-4.19-5.03-12.77-5.03-6.24 0-11.7 2.83t-10.34 7.71v72.34h-24.08V196.63h14.72q4.68 0 6.14 4.38m157.76 1.66 1.46 11.31q4.68-8.97 11.12-14.09 6.43-5.12 15.21-5.12 6.92 0 11.11 3.02l-1.56 18.04q-.49 1.76-1.41 2.49-.93.73-2.49.73-1.46 0-4.34-.49-2.87-.49-5.6-.49-4 0-7.12 1.17t-5.61 3.37q-2.48 2.19-4.38 5.31-1.91 3.12-3.56 7.12v61.62h-24.09V196.63h14.14q3.71 0 5.17 1.31 1.46 1.32 1.95 4.73m113.59-6.04h24.08v100.03h-14.72q-4.78 0-6.05-4.39l-1.66-7.99q-6.14 6.24-13.55 10.09t-17.45 3.85q-8.19 0-14.48-2.78t-10.58-7.85-6.48-12.04q-2.2-6.97-2.2-15.36v-63.56h24.09v63.56q0 9.17 4.24 14.19t12.72 5.02q6.24 0 11.7-2.78t10.34-7.65zm100.71 74.19v-16.86q-10.43.48-17.55 1.8-7.11 1.31-11.4 3.36t-6.15 4.78q-1.85 2.73-1.85 5.95 0 6.33 3.76 9.06 3.75 2.73 9.79 2.73 7.41 0 12.83-2.68 5.41-2.68 10.57-8.14m-50.89-52.55-4.29-7.7q17.26-15.8 41.53-15.8 8.78 0 15.7 2.88 6.92 2.87 11.7 7.99t7.27 12.24q2.48 7.12 2.48 15.6v63.18h-10.92q-3.41 0-5.26-1.02-1.86-1.03-2.93-4.15l-2.14-7.21q-3.81 3.41-7.41 5.99-3.61 2.59-7.51 4.34-3.9 1.76-8.34 2.68-4.43.93-9.8.93-6.33 0-11.7-1.71-5.36-1.7-9.26-5.12-3.9-3.41-6.04-8.48-2.15-5.07-2.15-11.8 0-3.8 1.27-7.55 1.27-3.76 4.14-7.17 2.88-3.41 7.46-6.43 4.58-3.03 11.26-5.27t15.55-3.65q8.88-1.42 20.28-1.71v-5.85q0-10.04-4.29-14.87t-12.38-4.83q-5.85 0-9.7 1.37t-6.78 3.07q-2.92 1.71-5.31 3.07-2.39 1.37-5.31 1.37-2.54 0-4.29-1.32-1.76-1.32-2.83-3.07m117.88-17.26 1.65 7.9q3.03-3.02 6.39-5.61 3.36-2.58 7.12-4.38 3.75-1.81 8.04-2.83t9.36-1.02q8.19 0 14.53 2.77 6.34 2.78 10.58 7.8t6.43 12q2.2 6.97 2.2 15.35v63.67h-24.09v-63.67q0-9.16-4.19-14.18-4.19-5.03-12.77-5.03-6.24 0-11.7 2.83t-10.34 7.71v72.34h-24.08V196.63h14.72q4.68 0 6.15 4.38"/></svg>